<svg width="19" height="17" viewBox="0 0 19 17" fill="none" xmlns="http://www.w3.org/2000/svg">
<path d="M10.8509 1.55566C10.4055 1.55566 9.98758 1.7816 9.71951 2.10741C9.45144 2.43323 9.30368 2.8304 9.19603 3.24897C9.02506 3.92201 8.97229 4.66877 8.95963 5.34181C7.70793 5.42505 6.57444 5.79606 5.63303 6.36921C5.25098 6.04815 4.79083 5.86978 4.34968 5.87454C3.84731 5.87929 3.37028 6.09571 3.01566 6.54044C2.3381 7.38947 2.4162 8.77836 3.20141 9.60361C3.15286 9.85808 3.11698 10.1197 3.11698 10.3837C3.11698 13.1805 5.97498 15.4446 9.49999 15.4446C13.025 15.4446 15.883 13.1781 15.883 10.3837C15.883 10.1197 15.8471 9.85808 15.7986 9.60361C16.5838 8.77836 16.6619 7.38947 15.9843 6.54044C15.6297 6.09571 15.1527 5.87929 14.6503 5.87454C14.2091 5.86978 13.749 6.04815 13.3669 6.36921C12.4298 5.79843 11.3026 5.42743 10.0572 5.34181C10.0741 4.72109 10.1184 4.07659 10.243 3.59143C10.3211 3.28702 10.414 3.06584 10.5132 2.94455C10.6124 2.82326 10.6841 2.77332 10.8509 2.77332C11.2118 2.77332 11.2583 2.88985 11.4757 3.17286C11.5854 3.31556 11.7121 3.49393 11.9147 3.66754C12.1174 3.84115 12.4171 3.99098 12.7421 3.99098V2.77332C12.6514 2.77332 12.6345 2.77094 12.5733 2.71624C12.5121 2.66154 12.4276 2.5355 12.3031 2.37378C12.054 2.04796 11.5707 1.55566 10.8509 1.55566ZM14.3632 1.66982C13.5231 1.66982 12.8435 2.43561 12.8435 3.38215C12.8435 4.32869 13.5231 5.09448 14.3632 5.09448C15.2033 5.09448 15.883 4.32869 15.883 3.38215C15.883 2.43561 15.2033 1.66982 14.3632 1.66982ZM14.3632 2.27865C14.9036 2.27865 15.3426 2.77332 15.3426 3.38215C15.3426 3.99098 14.9036 4.48565 14.3632 4.48565C13.8229 4.48565 13.3838 3.99098 13.3838 3.38215C13.3838 2.77332 13.8229 2.27865 14.3632 2.27865ZM9.49999 6.29311C12.491 6.29311 15.0218 8.16953 15.0218 10.3837C15.0218 12.6002 12.491 14.4742 9.49999 14.4742C6.50901 14.4742 3.97818 12.6002 3.97818 10.3837C3.97818 8.16953 6.50901 6.29311 9.49999 6.29311ZM4.36656 6.84486C4.51643 6.84724 4.67263 6.88529 4.82249 6.95901C4.28002 7.42277 3.84942 7.95549 3.55602 8.55719C3.35339 8.0863 3.40827 7.49887 3.65734 7.18732C3.83887 6.95901 4.09005 6.84248 4.36656 6.84486ZM14.6334 6.84486C14.9099 6.84248 15.1611 6.95901 15.3426 7.18732C15.5917 7.49887 15.6466 8.0863 15.4439 8.55719C15.1506 7.95549 14.72 7.42277 14.1775 6.95901C14.3273 6.88529 14.4835 6.84724 14.6334 6.84486ZM7.33855 8.36693C6.79819 8.36693 6.35914 8.8616 6.35914 9.47043C6.35914 10.0793 6.79819 10.5739 7.33855 10.5739C7.87891 10.5739 8.31795 10.0793 8.31795 9.47043C8.31795 8.8616 7.87891 8.36693 7.33855 8.36693ZM11.6614 8.36693C11.1211 8.36693 10.682 8.8616 10.682 9.47043C10.682 10.0793 11.1211 10.5739 11.6614 10.5739C12.2018 10.5739 12.6408 10.0793 12.6408 9.47043C12.6408 8.8616 12.2018 8.36693 11.6614 8.36693ZM6.81507 12.115C7.15913 12.9165 8.22296 13.6942 9.49999 13.6942C10.777 13.6942 11.8577 12.9165 12.2018 12.115C11.577 12.5693 10.5913 12.8761 9.49999 12.8761C8.40871 12.8761 7.43986 12.5693 6.81507 12.115Z" fill="#030A1A"/>
</svg>
