<svg xmlns="http://www.w3.org/2000/svg" xmlns:xlink="http://www.w3.org/1999/xlink"><symbol id="arrow" viewBox="0 0 18 34">
<path d="M1 1L17 17L1 33" stroke="#AFAFAF"/>
</symbol><symbol id="identic" viewBox="0 0 87 20">
<path d="M0.676 5.168C0.676 3.69467 1.03133 2.568 1.742 1.788C2.45267 0.990666 3.50133 0.592 4.888 0.592C6.27467 0.592 7.32333 0.990666 8.034 1.788C8.74467 2.568 9.1 3.69467 9.1 5.168V5.74H6.396V4.986C6.396 3.79 5.91933 3.192 4.966 3.192C4.01267 3.192 3.536 3.79 3.536 4.986C3.536 5.662 3.72667 6.30333 4.108 6.91C4.48933 7.49933 4.94867 8.03667 5.486 8.522C6.04067 9.00733 6.59533 9.51867 7.15 10.056C7.70467 10.576 8.17267 11.2347 8.554 12.032C8.93533 12.812 9.126 13.6787 9.126 14.632C9.126 16.1053 8.762 17.2407 8.034 18.038C7.306 18.818 6.24867 19.208 4.862 19.208C3.47533 19.208 2.418 18.818 1.69 18.038C0.962 17.2407 0.598 16.1053 0.598 14.632V13.514H3.302V14.814C3.302 15.9927 3.796 16.582 4.784 16.582C5.772 16.582 6.266 15.9927 6.266 14.814C6.266 14.138 6.07533 13.5053 5.694 12.916C5.31267 12.3093 4.84467 11.7633 4.29 11.278C3.75267 10.7927 3.20667 10.29 2.652 9.77C2.09733 9.23267 1.62933 8.574 1.248 7.794C0.866667 6.99667 0.676 6.12133 0.676 5.168ZM11.1546 0.799999H14.0146V14.84C14.0146 16.0187 14.5086 16.608 15.4966 16.608C16.4846 16.608 16.9786 16.0187 16.9786 14.84V0.799999H19.6826V14.658C19.6826 16.1313 19.3186 17.2667 18.5906 18.064C17.8626 18.844 16.8053 19.234 15.4186 19.234C14.0319 19.234 12.9746 18.844 12.2466 18.064C11.5186 17.2667 11.1546 16.1313 11.1546 14.658V0.799999ZM26.376 0.799999C29.2187 0.799999 30.64 2.29933 30.64 5.298V7.664C30.64 10.6627 29.2187 12.162 26.376 12.162H25.024V19H22.164V0.799999H26.376ZM26.376 3.4H25.024V9.562H26.376C26.844 9.562 27.1907 9.432 27.416 9.172C27.6587 8.912 27.78 8.47 27.78 7.846V5.116C27.78 4.492 27.6587 4.05 27.416 3.79C27.1907 3.53 26.844 3.4 26.376 3.4ZM35.3448 3.4V8.47H39.2708V11.07H35.3448V16.4H40.2848V19H32.4848V0.799999H40.2848V3.4H35.3448ZM51.469 19H48.557C48.3837 18.48 48.297 17.7347 48.297 16.764V13.904C48.297 13.072 48.1497 12.4827 47.855 12.136C47.5604 11.772 47.0837 11.59 46.425 11.59H45.437V19H42.577V0.799999H46.893C48.3664 0.799999 49.441 1.14667 50.117 1.84C50.793 2.516 51.131 3.56467 51.131 4.986V6.416C51.131 8.288 50.507 9.51867 49.259 10.108C50.5244 10.6453 51.157 11.9367 51.157 13.982V16.79C51.157 17.778 51.261 18.5147 51.469 19ZM46.815 3.4H45.437V8.99H46.555C47.127 8.99 47.5517 8.84267 47.829 8.548C48.1237 8.25333 48.271 7.75933 48.271 7.066V5.272C48.271 4.024 47.7857 3.4 46.815 3.4ZM57.848 11.46V8.86H61.852V14.632C61.852 16.1053 61.488 17.2407 60.76 18.038C60.032 18.818 58.9746 19.208 57.588 19.208C56.2013 19.208 55.144 18.818 54.416 18.038C53.688 17.2407 53.324 16.1053 53.324 14.632V5.168C53.324 3.69467 53.688 2.568 54.416 1.788C55.144 0.990666 56.2013 0.592 57.588 0.592C58.9746 0.592 60.032 0.990666 60.76 1.788C61.488 2.568 61.852 3.69467 61.852 5.168V6.936H59.148V4.986C59.148 3.79 58.654 3.192 57.666 3.192C56.678 3.192 56.184 3.79 56.184 4.986V14.814C56.184 15.9927 56.678 16.582 57.666 16.582C58.654 16.582 59.148 15.9927 59.148 14.814V11.46H57.848ZM66.506 19V12.968L62.892 0.799999H65.882L68.066 9.094L70.25 0.799999H72.98L69.366 12.968V19H66.506ZM78.6086 0.799999L80.7146 13.722L82.6646 0.799999H86.6426V19H83.9386V5.948L81.9626 19H79.2586L77.1266 6.13V19H74.6306V0.799999H78.6086Z" fill="white"/>
</symbol><symbol id="ok" viewBox="0 0 19 17">
<path d="M9.68034 2.88879C10.5788 2.88879 11.3095 3.64309 11.3095 4.57061C11.3095 5.49532 10.5788 6.24963 9.68034 6.24963C8.78184 6.24963 8.05114 5.49532 8.05114 4.57061C8.05114 3.64309 8.78184 2.88879 9.68034 2.88879ZM9.68034 8.62987C11.8508 8.62987 13.6153 6.80837 13.6153 4.57061C13.6153 2.33005 11.8508 0.508545 9.68034 0.508545C7.50988 0.508545 5.74807 2.33005 5.74807 4.57061C5.74807 6.80837 7.50988 8.62987 9.68034 8.62987ZM11.2716 11.9432C12.0727 11.7532 12.844 11.4264 13.5558 10.9654C14.0943 10.6162 14.2567 9.88146 13.9184 9.32551C13.5774 8.76676 12.8684 8.59914 12.3271 8.95115C10.7169 9.996 8.64382 9.996 7.03086 8.95115C6.49231 8.59914 5.78055 8.76676 5.44226 9.32551C5.10397 9.88146 5.26635 10.6162 5.80491 10.9654C6.51667 11.4264 7.28796 11.7532 8.08903 11.9432L5.8888 14.2117C5.43956 14.6755 5.43956 15.4298 5.8888 15.8935C6.11613 16.1254 6.40841 16.2427 6.7034 16.2427C6.99839 16.2427 7.29338 16.1254 7.52071 15.8935L9.68034 13.6641L11.8427 15.8935C12.2919 16.3601 13.0199 16.3601 13.4719 15.8935C13.9211 15.4298 13.9211 14.6755 13.4719 14.2117L11.2716 11.9432Z" fill="#030A1A"/>
</symbol><symbol id="reddit" viewBox="0 0 19 17">
<path d="M10.8509 1.55566C10.4055 1.55566 9.98758 1.7816 9.71951 2.10741C9.45144 2.43323 9.30368 2.8304 9.19603 3.24897C9.02506 3.92201 8.97229 4.66877 8.95963 5.34181C7.70793 5.42505 6.57444 5.79606 5.63303 6.36921C5.25098 6.04815 4.79083 5.86978 4.34968 5.87454C3.84731 5.87929 3.37028 6.09571 3.01566 6.54044C2.3381 7.38947 2.4162 8.77836 3.20141 9.60361C3.15286 9.85808 3.11698 10.1197 3.11698 10.3837C3.11698 13.1805 5.97498 15.4446 9.49999 15.4446C13.025 15.4446 15.883 13.1781 15.883 10.3837C15.883 10.1197 15.8471 9.85808 15.7986 9.60361C16.5838 8.77836 16.6619 7.38947 15.9843 6.54044C15.6297 6.09571 15.1527 5.87929 14.6503 5.87454C14.2091 5.86978 13.749 6.04815 13.3669 6.36921C12.4298 5.79843 11.3026 5.42743 10.0572 5.34181C10.0741 4.72109 10.1184 4.07659 10.243 3.59143C10.3211 3.28702 10.414 3.06584 10.5132 2.94455C10.6124 2.82326 10.6841 2.77332 10.8509 2.77332C11.2118 2.77332 11.2583 2.88985 11.4757 3.17286C11.5854 3.31556 11.7121 3.49393 11.9147 3.66754C12.1174 3.84115 12.4171 3.99098 12.7421 3.99098V2.77332C12.6514 2.77332 12.6345 2.77094 12.5733 2.71624C12.5121 2.66154 12.4276 2.5355 12.3031 2.37378C12.054 2.04796 11.5707 1.55566 10.8509 1.55566ZM14.3632 1.66982C13.5231 1.66982 12.8435 2.43561 12.8435 3.38215C12.8435 4.32869 13.5231 5.09448 14.3632 5.09448C15.2033 5.09448 15.883 4.32869 15.883 3.38215C15.883 2.43561 15.2033 1.66982 14.3632 1.66982ZM14.3632 2.27865C14.9036 2.27865 15.3426 2.77332 15.3426 3.38215C15.3426 3.99098 14.9036 4.48565 14.3632 4.48565C13.8229 4.48565 13.3838 3.99098 13.3838 3.38215C13.3838 2.77332 13.8229 2.27865 14.3632 2.27865ZM9.49999 6.29311C12.491 6.29311 15.0218 8.16953 15.0218 10.3837C15.0218 12.6002 12.491 14.4742 9.49999 14.4742C6.50901 14.4742 3.97818 12.6002 3.97818 10.3837C3.97818 8.16953 6.50901 6.29311 9.49999 6.29311ZM4.36656 6.84486C4.51643 6.84724 4.67263 6.88529 4.82249 6.95901C4.28002 7.42277 3.84942 7.95549 3.55602 8.55719C3.35339 8.0863 3.40827 7.49887 3.65734 7.18732C3.83887 6.95901 4.09005 6.84248 4.36656 6.84486ZM14.6334 6.84486C14.9099 6.84248 15.1611 6.95901 15.3426 7.18732C15.5917 7.49887 15.6466 8.0863 15.4439 8.55719C15.1506 7.95549 14.72 7.42277 14.1775 6.95901C14.3273 6.88529 14.4835 6.84724 14.6334 6.84486ZM7.33855 8.36693C6.79819 8.36693 6.35914 8.8616 6.35914 9.47043C6.35914 10.0793 6.79819 10.5739 7.33855 10.5739C7.87891 10.5739 8.31795 10.0793 8.31795 9.47043C8.31795 8.8616 7.87891 8.36693 7.33855 8.36693ZM11.6614 8.36693C11.1211 8.36693 10.682 8.8616 10.682 9.47043C10.682 10.0793 11.1211 10.5739 11.6614 10.5739C12.2018 10.5739 12.6408 10.0793 12.6408 9.47043C12.6408 8.8616 12.2018 8.36693 11.6614 8.36693ZM6.81507 12.115C7.15913 12.9165 8.22296 13.6942 9.49999 13.6942C10.777 13.6942 11.8577 12.9165 12.2018 12.115C11.577 12.5693 10.5913 12.8761 9.49999 12.8761C8.40871 12.8761 7.43986 12.5693 6.81507 12.115Z" fill="#030A1A"/>
</symbol><symbol id="rouble" viewBox="0 0 30 42">
<path fill-rule="evenodd" clip-rule="evenodd" d="M18.5 6H10V17H18.5C21.5376 17 24 14.5376 24 11.5C24 8.46243 21.5376 6 18.5 6ZM4 0V23H18.5C24.8513 23 30 17.8513 30 11.5C30 5.14873 24.8513 0 18.5 0H4Z" fill="#102654"/>
<path fill-rule="evenodd" clip-rule="evenodd" d="M0 17H6V23H0V17Z" fill="#102654"/>
<path fill-rule="evenodd" clip-rule="evenodd" d="M3.65854 28.3214V18H9.65854V28.3214H21V34.3214H9.65854V42H3.65854V34.3214H0V28.3214H3.65854Z" fill="#102654"/>
</symbol><symbol id="vk" viewBox="0 0 19 17">
<path d="M10.7227 11.0518C11.1654 10.9087 11.7322 11.9964 12.3355 12.4127C12.7884 12.728 13.1352 12.6599 13.1352 12.6599L14.7434 12.6368C14.7434 12.6368 15.5839 12.5849 15.1866 11.9172C15.1537 11.8616 14.9536 11.4222 13.9896 10.5179C12.9815 9.57185 13.1181 9.72512 14.3318 8.08962C15.0713 7.09267 15.3671 6.48376 15.2745 6.22445C15.1856 5.97486 14.6425 6.03969 14.6425 6.03969L12.8305 6.05219C12.6541 6.05265 12.5046 6.10729 12.4365 6.29066C12.4351 6.29252 12.1489 7.06211 11.7674 7.7164C10.9612 9.10046 10.6394 9.17408 10.506 9.08749C10.2 8.88699 10.2773 8.28317 10.2773 7.85392C10.2773 6.51246 10.4773 5.9531 9.88554 5.80863C9.68782 5.76047 9.54335 5.72898 9.03908 5.72435C8.39452 5.71463 7.84719 5.72435 7.53695 5.8767C7.33089 5.97996 7.17299 6.20639 7.26884 6.21935C7.38923 6.23556 7.65919 6.29344 7.80366 6.4907C7.98935 6.74631 7.98379 7.3191 7.98379 7.3191C7.98379 7.3191 8.08983 8.89857 7.73374 9.09444C7.48925 9.22872 7.15493 8.9546 6.43581 7.69788C6.06861 7.05516 5.79124 6.34484 5.79124 6.34484C5.79124 6.34484 5.73753 6.21287 5.64029 6.14063C5.52452 6.05497 5.36246 6.02765 5.36246 6.02765L3.64268 6.03876C3.64268 6.03876 3.3843 6.04617 3.28938 6.16008C3.2051 6.26103 3.28243 6.4694 3.28243 6.4694C3.28243 6.4694 4.62945 9.65566 6.15474 11.2606C7.55315 12.734 9.14234 12.6363 9.14234 12.6363H9.86239C9.86239 12.6363 10.0796 12.6113 10.1907 12.4918C10.2944 12.3807 10.2898 12.1719 10.2898 12.1719C10.2898 12.1719 10.2754 11.1953 10.7227 11.0518Z" fill="#030A1A"/>
</symbol></svg>