<svg xmlns="http://www.w3.org/2000/svg" xmlns:xlink="http://www.w3.org/1999/xlink"><symbol id="ok" viewBox="0 0 19 17">
<path d="M9.68034 2.88879C10.5788 2.88879 11.3095 3.64309 11.3095 4.57061C11.3095 5.49532 10.5788 6.24963 9.68034 6.24963C8.78184 6.24963 8.05114 5.49532 8.05114 4.57061C8.05114 3.64309 8.78184 2.88879 9.68034 2.88879ZM9.68034 8.62987C11.8508 8.62987 13.6153 6.80837 13.6153 4.57061C13.6153 2.33005 11.8508 0.508545 9.68034 0.508545C7.50988 0.508545 5.74807 2.33005 5.74807 4.57061C5.74807 6.80837 7.50988 8.62987 9.68034 8.62987ZM11.2716 11.9432C12.0727 11.7532 12.844 11.4264 13.5558 10.9654C14.0943 10.6162 14.2567 9.88146 13.9184 9.32551C13.5774 8.76676 12.8684 8.59914 12.3271 8.95115C10.7169 9.996 8.64382 9.996 7.03086 8.95115C6.49231 8.59914 5.78055 8.76676 5.44226 9.32551C5.10397 9.88146 5.26635 10.6162 5.80491 10.9654C6.51667 11.4264 7.28796 11.7532 8.08903 11.9432L5.8888 14.2117C5.43956 14.6755 5.43956 15.4298 5.8888 15.8935C6.11613 16.1254 6.40841 16.2427 6.7034 16.2427C6.99839 16.2427 7.29338 16.1254 7.52071 15.8935L9.68034 13.6641L11.8427 15.8935C12.2919 16.3601 13.0199 16.3601 13.4719 15.8935C13.9211 15.4298 13.9211 14.6755 13.4719 14.2117L11.2716 11.9432Z" fill="#030A1A"/>
</symbol><symbol id="reddit" viewBox="0 0 19 17">
<path d="M10.8509 1.55566C10.4055 1.55566 9.98758 1.7816 9.71951 2.10741C9.45144 2.43323 9.30368 2.8304 9.19603 3.24897C9.02506 3.92201 8.97229 4.66877 8.95963 5.34181C7.70793 5.42505 6.57444 5.79606 5.63303 6.36921C5.25098 6.04815 4.79083 5.86978 4.34968 5.87454C3.84731 5.87929 3.37028 6.09571 3.01566 6.54044C2.3381 7.38947 2.4162 8.77836 3.20141 9.60361C3.15286 9.85808 3.11698 10.1197 3.11698 10.3837C3.11698 13.1805 5.97498 15.4446 9.49999 15.4446C13.025 15.4446 15.883 13.1781 15.883 10.3837C15.883 10.1197 15.8471 9.85808 15.7986 9.60361C16.5838 8.77836 16.6619 7.38947 15.9843 6.54044C15.6297 6.09571 15.1527 5.87929 14.6503 5.87454C14.2091 5.86978 13.749 6.04815 13.3669 6.36921C12.4298 5.79843 11.3026 5.42743 10.0572 5.34181C10.0741 4.72109 10.1184 4.07659 10.243 3.59143C10.3211 3.28702 10.414 3.06584 10.5132 2.94455C10.6124 2.82326 10.6841 2.77332 10.8509 2.77332C11.2118 2.77332 11.2583 2.88985 11.4757 3.17286C11.5854 3.31556 11.7121 3.49393 11.9147 3.66754C12.1174 3.84115 12.4171 3.99098 12.7421 3.99098V2.77332C12.6514 2.77332 12.6345 2.77094 12.5733 2.71624C12.5121 2.66154 12.4276 2.5355 12.3031 2.37378C12.054 2.04796 11.5707 1.55566 10.8509 1.55566ZM14.3632 1.66982C13.5231 1.66982 12.8435 2.43561 12.8435 3.38215C12.8435 4.32869 13.5231 5.09448 14.3632 5.09448C15.2033 5.09448 15.883 4.32869 15.883 3.38215C15.883 2.43561 15.2033 1.66982 14.3632 1.66982ZM14.3632 2.27865C14.9036 2.27865 15.3426 2.77332 15.3426 3.38215C15.3426 3.99098 14.9036 4.48565 14.3632 4.48565C13.8229 4.48565 13.3838 3.99098 13.3838 3.38215C13.3838 2.77332 13.8229 2.27865 14.3632 2.27865ZM9.49999 6.29311C12.491 6.29311 15.0218 8.16953 15.0218 10.3837C15.0218 12.6002 12.491 14.4742 9.49999 14.4742C6.50901 14.4742 3.97818 12.6002 3.97818 10.3837C3.97818 8.16953 6.50901 6.29311 9.49999 6.29311ZM4.36656 6.84486C4.51643 6.84724 4.67263 6.88529 4.82249 6.95901C4.28002 7.42277 3.84942 7.95549 3.55602 8.55719C3.35339 8.0863 3.40827 7.49887 3.65734 7.18732C3.83887 6.95901 4.09005 6.84248 4.36656 6.84486ZM14.6334 6.84486C14.9099 6.84248 15.1611 6.95901 15.3426 7.18732C15.5917 7.49887 15.6466 8.0863 15.4439 8.55719C15.1506 7.95549 14.72 7.42277 14.1775 6.95901C14.3273 6.88529 14.4835 6.84724 14.6334 6.84486ZM7.33855 8.36693C6.79819 8.36693 6.35914 8.8616 6.35914 9.47043C6.35914 10.0793 6.79819 10.5739 7.33855 10.5739C7.87891 10.5739 8.31795 10.0793 8.31795 9.47043C8.31795 8.8616 7.87891 8.36693 7.33855 8.36693ZM11.6614 8.36693C11.1211 8.36693 10.682 8.8616 10.682 9.47043C10.682 10.0793 11.1211 10.5739 11.6614 10.5739C12.2018 10.5739 12.6408 10.0793 12.6408 9.47043C12.6408 8.8616 12.2018 8.36693 11.6614 8.36693ZM6.81507 12.115C7.15913 12.9165 8.22296 13.6942 9.49999 13.6942C10.777 13.6942 11.8577 12.9165 12.2018 12.115C11.577 12.5693 10.5913 12.8761 9.49999 12.8761C8.40871 12.8761 7.43986 12.5693 6.81507 12.115Z" fill="#030A1A"/>
</symbol><symbol id="vk" viewBox="0 0 19 17">
<path d="M10.7227 11.0518C11.1654 10.9087 11.7322 11.9964 12.3355 12.4127C12.7884 12.728 13.1352 12.6599 13.1352 12.6599L14.7434 12.6368C14.7434 12.6368 15.5839 12.5849 15.1866 11.9172C15.1537 11.8616 14.9536 11.4222 13.9896 10.5179C12.9815 9.57185 13.1181 9.72512 14.3318 8.08962C15.0713 7.09267 15.3671 6.48376 15.2745 6.22445C15.1856 5.97486 14.6425 6.03969 14.6425 6.03969L12.8305 6.05219C12.6541 6.05265 12.5046 6.10729 12.4365 6.29066C12.4351 6.29252 12.1489 7.06211 11.7674 7.7164C10.9612 9.10046 10.6394 9.17408 10.506 9.08749C10.2 8.88699 10.2773 8.28317 10.2773 7.85392C10.2773 6.51246 10.4773 5.9531 9.88554 5.80863C9.68782 5.76047 9.54335 5.72898 9.03908 5.72435C8.39452 5.71463 7.84719 5.72435 7.53695 5.8767C7.33089 5.97996 7.17299 6.20639 7.26884 6.21935C7.38923 6.23556 7.65919 6.29344 7.80366 6.4907C7.98935 6.74631 7.98379 7.3191 7.98379 7.3191C7.98379 7.3191 8.08983 8.89857 7.73374 9.09444C7.48925 9.22872 7.15493 8.9546 6.43581 7.69788C6.06861 7.05516 5.79124 6.34484 5.79124 6.34484C5.79124 6.34484 5.73753 6.21287 5.64029 6.14063C5.52452 6.05497 5.36246 6.02765 5.36246 6.02765L3.64268 6.03876C3.64268 6.03876 3.3843 6.04617 3.28938 6.16008C3.2051 6.26103 3.28243 6.4694 3.28243 6.4694C3.28243 6.4694 4.62945 9.65566 6.15474 11.2606C7.55315 12.734 9.14234 12.6363 9.14234 12.6363H9.86239C9.86239 12.6363 10.0796 12.6113 10.1907 12.4918C10.2944 12.3807 10.2898 12.1719 10.2898 12.1719C10.2898 12.1719 10.2754 11.1953 10.7227 11.0518Z" fill="#030A1A"/>
</symbol></svg>