<svg width="19" height="17" viewBox="0 0 19 17" fill="none" xmlns="http://www.w3.org/2000/svg">
<path d="M9.68034 2.88879C10.5788 2.88879 11.3095 3.64309 11.3095 4.57061C11.3095 5.49532 10.5788 6.24963 9.68034 6.24963C8.78184 6.24963 8.05114 5.49532 8.05114 4.57061C8.05114 3.64309 8.78184 2.88879 9.68034 2.88879ZM9.68034 8.62987C11.8508 8.62987 13.6153 6.80837 13.6153 4.57061C13.6153 2.33005 11.8508 0.508545 9.68034 0.508545C7.50988 0.508545 5.74807 2.33005 5.74807 4.57061C5.74807 6.80837 7.50988 8.62987 9.68034 8.62987ZM11.2716 11.9432C12.0727 11.7532 12.844 11.4264 13.5558 10.9654C14.0943 10.6162 14.2567 9.88146 13.9184 9.32551C13.5774 8.76676 12.8684 8.59914 12.3271 8.95115C10.7169 9.996 8.64382 9.996 7.03086 8.95115C6.49231 8.59914 5.78055 8.76676 5.44226 9.32551C5.10397 9.88146 5.26635 10.6162 5.80491 10.9654C6.51667 11.4264 7.28796 11.7532 8.08903 11.9432L5.8888 14.2117C5.43956 14.6755 5.43956 15.4298 5.8888 15.8935C6.11613 16.1254 6.40841 16.2427 6.7034 16.2427C6.99839 16.2427 7.29338 16.1254 7.52071 15.8935L9.68034 13.6641L11.8427 15.8935C12.2919 16.3601 13.0199 16.3601 13.4719 15.8935C13.9211 15.4298 13.9211 14.6755 13.4719 14.2117L11.2716 11.9432Z" fill="#030A1A"/>
</svg>
