<svg width="19" height="17" viewBox="0 0 19 17" fill="none" xmlns="http://www.w3.org/2000/svg">
<path d="M10.7227 11.0518C11.1654 10.9087 11.7322 11.9964 12.3355 12.4127C12.7884 12.728 13.1352 12.6599 13.1352 12.6599L14.7434 12.6368C14.7434 12.6368 15.5839 12.5849 15.1866 11.9172C15.1537 11.8616 14.9536 11.4222 13.9896 10.5179C12.9815 9.57185 13.1181 9.72512 14.3318 8.08962C15.0713 7.09267 15.3671 6.48376 15.2745 6.22445C15.1856 5.97486 14.6425 6.03969 14.6425 6.03969L12.8305 6.05219C12.6541 6.05265 12.5046 6.10729 12.4365 6.29066C12.4351 6.29252 12.1489 7.06211 11.7674 7.7164C10.9612 9.10046 10.6394 9.17408 10.506 9.08749C10.2 8.88699 10.2773 8.28317 10.2773 7.85392C10.2773 6.51246 10.4773 5.9531 9.88554 5.80863C9.68782 5.76047 9.54335 5.72898 9.03908 5.72435C8.39452 5.71463 7.84719 5.72435 7.53695 5.8767C7.33089 5.97996 7.17299 6.20639 7.26884 6.21935C7.38923 6.23556 7.65919 6.29344 7.80366 6.4907C7.98935 6.74631 7.98379 7.3191 7.98379 7.3191C7.98379 7.3191 8.08983 8.89857 7.73374 9.09444C7.48925 9.22872 7.15493 8.9546 6.43581 7.69788C6.06861 7.05516 5.79124 6.34484 5.79124 6.34484C5.79124 6.34484 5.73753 6.21287 5.64029 6.14063C5.52452 6.05497 5.36246 6.02765 5.36246 6.02765L3.64268 6.03876C3.64268 6.03876 3.3843 6.04617 3.28938 6.16008C3.2051 6.26103 3.28243 6.4694 3.28243 6.4694C3.28243 6.4694 4.62945 9.65566 6.15474 11.2606C7.55315 12.734 9.14234 12.6363 9.14234 12.6363H9.86239C9.86239 12.6363 10.0796 12.6113 10.1907 12.4918C10.2944 12.3807 10.2898 12.1719 10.2898 12.1719C10.2898 12.1719 10.2754 11.1953 10.7227 11.0518Z" fill="#030A1A"/>
</svg>
